<svg width="240" height="211" viewBox="0 0 240 211" fill="none" xmlns="http://www.w3.org/2000/svg">
<g opacity="0.08" clip-path="url(#clip0_306_5341)">
<path d="M123.75 181.656V151H116.25V181.656C111.891 183.203 108.75 187.366 108.75 192.25C108.75 198.456 113.794 203.5 120 203.5C126.206 203.5 131.25 198.456 131.25 192.25C131.25 187.366 128.109 183.203 123.75 181.656ZM120 196C117.928 196 116.25 194.322 116.25 192.25C116.25 190.178 117.928 188.5 120 188.5C122.072 188.5 123.75 190.178 123.75 192.25C123.75 194.322 122.072 196 120 196Z" fill="#2876EC"/>
<path d="M174.375 188.5C173.175 188.5 172.012 188.697 170.925 189.044L153.75 169.45V151H146.25V170.866C146.25 171.775 146.578 172.656 147.178 173.341L164.953 193.619C163.8 195.381 163.125 197.491 163.125 199.759C163.125 205.966 168.169 211.009 174.375 211.009C180.581 211.009 185.625 205.966 185.625 199.759C185.625 193.553 180.581 188.5 174.375 188.5ZM174.375 203.5C172.303 203.5 170.625 201.822 170.625 199.75C170.625 197.678 172.303 196 174.375 196C176.447 196 178.125 197.678 178.125 199.75C178.125 201.822 176.447 203.5 174.375 203.5Z" fill="#2876EC"/>
<path d="M116.25 0.34375V31H123.75V0.34375C128.109 -1.20312 131.25 -5.36563 131.25 -10.25C131.25 -16.4562 126.206 -21.5 120 -21.5C113.794 -21.5 108.75 -16.4562 108.75 -10.25C108.75 -5.36563 111.891 -1.20312 116.25 0.34375ZM120 -14C122.072 -14 123.75 -12.3219 123.75 -10.25C123.75 -8.17813 122.072 -6.5 120 -6.5C117.928 -6.5 116.25 -8.17813 116.25 -10.25C116.25 -12.3219 117.928 -14 120 -14Z" fill="#2876EC"/>
<path d="M65.625 -6.5C66.825 -6.5 67.9875 -6.69687 69.075 -7.04375L86.25 12.55V31H93.75V11.1344C93.75 10.225 93.4219 9.34375 92.8219 8.65938L75.0375 -11.6094C76.1906 -13.3719 76.875 -15.4812 76.875 -17.75C76.875 -23.9562 71.8312 -29 65.625 -29C59.4188 -29 54.375 -23.9562 54.375 -17.75C54.375 -11.5438 59.4188 -6.5 65.625 -6.5ZM65.625 -21.5C67.6969 -21.5 69.375 -19.8219 69.375 -17.75C69.375 -15.6781 67.6969 -14 65.625 -14C63.5531 -14 61.875 -15.6781 61.875 -17.75C61.875 -19.8219 63.5531 -21.5 65.625 -21.5Z" fill="#2876EC"/>
<path d="M18.75 79.75C12.5438 79.75 7.5 84.7938 7.5 91C7.5 97.2062 12.5438 102.25 18.75 102.25C23.6344 102.25 27.7969 99.1094 29.3438 94.75H60V87.25H29.3438C27.7969 82.8906 23.6344 79.75 18.75 79.75ZM18.75 94.75C16.6781 94.75 15 93.0719 15 91C15 88.9281 16.6781 87.25 18.75 87.25C20.8219 87.25 22.5 88.9281 22.5 91C22.5 93.0719 20.8219 94.75 18.75 94.75Z" fill="#2876EC"/>
<path d="M11.25 47.875C13.5094 47.875 15.6187 47.2 17.3906 46.0469L37.6687 63.8219C38.3531 64.4219 39.2344 64.75 40.1438 64.75H60V57.25H41.55L21.9562 40.075C22.3031 38.9875 22.5 37.8344 22.5 36.625C22.5 30.4188 17.4562 25.375 11.25 25.375C5.04375 25.375 0 30.4188 0 36.625C0 42.8312 5.04375 47.875 11.25 47.875ZM11.25 32.875C13.3219 32.875 15 34.5531 15 36.625C15 38.6969 13.3219 40.375 11.25 40.375C9.17813 40.375 7.5 38.6969 7.5 36.625C7.5 34.5531 9.17813 32.875 11.25 32.875Z" fill="#2876EC"/>
<path d="M221.25 102.25C227.456 102.25 232.5 97.2062 232.5 91C232.5 84.7938 227.456 79.75 221.25 79.75C216.366 79.75 212.203 82.8906 210.656 87.25H180V94.75H210.656C212.203 99.1094 216.366 102.25 221.25 102.25ZM221.25 87.25C223.322 87.25 225 88.9281 225 91C225 93.0719 223.322 94.75 221.25 94.75C219.178 94.75 217.5 93.0719 217.5 91C217.5 88.9281 219.178 87.25 221.25 87.25Z" fill="#2876EC"/>
<path d="M228.75 134.125C226.481 134.125 224.381 134.8 222.609 135.962L202.331 118.187C201.647 117.587 200.766 117.259 199.856 117.259H180V124.759H198.45L218.044 141.934C217.688 143.022 217.5 144.175 217.5 145.384C217.5 151.591 222.544 156.634 228.75 156.634C234.956 156.634 240 151.591 240 145.384C240 139.178 234.956 134.125 228.75 134.125ZM228.75 149.125C226.678 149.125 225 147.447 225 145.375C225 143.303 226.678 141.625 228.75 141.625C230.822 141.625 232.5 143.303 232.5 145.375C232.5 147.447 230.822 149.125 228.75 149.125Z" fill="#2876EC"/>
<path d="M153.75 12.55L170.925 -7.04375C172.012 -6.6875 173.166 -6.5 174.375 -6.5C180.581 -6.5 185.625 -11.5438 185.625 -17.75C185.625 -23.9562 180.581 -29 174.375 -29C168.169 -29 163.125 -23.9562 163.125 -17.75C163.125 -15.4812 163.8 -13.3813 164.953 -11.6094L147.178 8.66875C146.578 9.35312 146.25 10.2344 146.25 11.1438V31H153.75V12.55ZM174.375 -21.5C176.447 -21.5 178.125 -19.8219 178.125 -17.75C178.125 -15.6781 176.447 -14 174.375 -14C172.303 -14 170.625 -15.6781 170.625 -17.75C170.625 -19.8219 172.303 -21.5 174.375 -21.5Z" fill="#2876EC"/>
<path d="M78.75 143.5H161.25C167.456 143.5 172.5 138.456 172.5 132.25V49.75C172.5 43.5438 167.456 38.5 161.25 38.5H78.75C72.5438 38.5 67.5 43.5438 67.5 49.75V132.25C67.5 138.456 72.5438 143.5 78.75 143.5ZM75 49.75C75 47.6781 76.6781 46 78.75 46H161.25C163.322 46 165 47.6781 165 49.75V132.25C165 134.322 163.322 136 161.25 136H78.75C76.6781 136 75 134.322 75 132.25V49.75Z" fill="#2876EC"/>
<path d="M104.138 113.5H135.872C139.528 113.5 142.509 110.528 142.509 106.863V75.1282C142.509 71.472 139.538 68.4907 135.872 68.4907H104.138C100.481 68.4907 97.5 71.4626 97.5 75.1282V106.863C97.5 110.528 100.472 113.5 104.138 113.5ZM105 76.0001H135V106H105V76.0001Z" fill="#2876EC"/>
<path d="M131.25 31H138.75V21.625C138.75 19.5531 137.072 17.875 135 17.875C132.928 17.875 131.25 19.5531 131.25 21.625V31Z" fill="#2876EC"/>
<path d="M108.75 31V21.625C108.75 19.5531 107.072 17.875 105 17.875C102.928 17.875 101.25 19.5531 101.25 21.625V31H108.75Z" fill="#2876EC"/>
<path d="M180 57.25V64.75H199.866C200.775 64.75 201.656 64.4219 202.341 63.8219L222.619 46.0469C224.381 47.2 226.491 47.875 228.759 47.875C234.966 47.875 240.009 42.8312 240.009 36.625C240.009 30.4188 234.966 25.375 228.759 25.375C222.553 25.375 217.509 30.4188 217.509 36.625C217.509 37.825 217.706 38.9875 218.053 40.075L198.459 57.25H180ZM228.75 32.875C230.822 32.875 232.5 34.5531 232.5 36.625C232.5 38.6969 230.822 40.375 228.75 40.375C226.678 40.375 225 38.6969 225 36.625C225 34.5531 226.678 32.875 228.75 32.875Z" fill="#2876EC"/>
<path d="M193.125 76C193.125 73.9281 191.447 72.25 189.375 72.25H180V79.75H189.375C191.447 79.75 193.125 78.0719 193.125 76Z" fill="#2876EC"/>
<path d="M108.75 151H101.25V160.375C101.25 162.447 102.928 164.125 105 164.125C107.072 164.125 108.75 162.447 108.75 160.375V151Z" fill="#2876EC"/>
<path d="M131.25 151V160.375C131.25 162.447 132.928 164.125 135 164.125C137.072 164.125 138.75 162.447 138.75 160.375V151H131.25Z" fill="#2876EC"/>
<path d="M193.125 106C193.125 103.928 191.447 102.25 189.375 102.25H180V109.75H189.375C191.447 109.75 193.125 108.072 193.125 106Z" fill="#2876EC"/>
<path d="M46.875 76C46.875 78.0719 48.5531 79.75 50.625 79.75H60V72.25H50.625C48.5531 72.25 46.875 73.9281 46.875 76Z" fill="#2876EC"/>
<path d="M50.625 109.75H60V102.25H50.625C48.5531 102.25 46.875 103.928 46.875 106C46.875 108.072 48.5531 109.75 50.625 109.75Z" fill="#2876EC"/>
<path d="M60.0016 124.75V117.25H40.1359C39.2266 117.25 38.3453 117.578 37.6609 118.178L17.3828 135.953C15.6203 134.8 13.5109 134.116 11.2422 134.116C5.03594 134.116 -0.0078125 139.159 -0.0078125 145.366C-0.0078125 151.572 5.03594 156.616 11.2422 156.616C17.4484 156.616 22.4922 151.572 22.4922 145.366C22.4922 144.166 22.2953 143.003 21.9484 141.916L41.5422 124.741H60.0016V124.75ZM11.2516 149.125C9.17969 149.125 7.50156 147.447 7.50156 145.375C7.50156 143.303 9.17969 141.625 11.2516 141.625C13.3234 141.625 15.0016 143.303 15.0016 145.375C15.0016 147.447 13.3234 149.125 11.2516 149.125Z" fill="#2876EC"/>
<path d="M86.25 169.45L69.075 189.044C67.9875 188.688 66.8344 188.5 65.625 188.5C59.4188 188.5 54.375 193.544 54.375 199.75C54.375 205.956 59.4188 211 65.625 211C71.8312 211 76.875 205.956 76.875 199.75C76.875 197.491 76.2 195.381 75.0375 193.609L92.8125 173.331C93.4125 172.647 93.7406 171.766 93.7406 170.856V151H86.2406V169.45H86.25ZM65.625 203.5C63.5531 203.5 61.875 201.822 61.875 199.75C61.875 197.678 63.5531 196 65.625 196C67.6969 196 69.375 197.678 69.375 199.75C69.375 201.822 67.6969 203.5 65.625 203.5Z" fill="#2876EC"/>
</g>
<defs>
<clipPath id="clip0_306_5341">
<rect width="240" height="211" fill="white"/>
</clipPath>
</defs>
</svg>
