<svg width="16" height="17" viewBox="0 0 16 17" fill="none" xmlns="http://www.w3.org/2000/svg">
<path fill-rule="evenodd" clip-rule="evenodd" d="M8.3098 3.47615C9.61154 2.17456 11.722 2.17462 13.0237 3.47631C14.3255 4.77806 14.3255 6.88861 13.0237 8.19033L7.69034 13.5237C6.38861 14.8255 4.27806 14.8255 2.97632 13.5237C1.67463 12.222 1.67456 10.1116 2.9761 8.80987C2.97602 8.80993 2.97617 8.8098 2.9761 8.80987L5.25223 6.53162C6.03329 5.75057 7.2998 5.75035 8.08087 6.53141C8.86194 7.31247 8.86194 8.5788 8.08087 9.3598L6.47171 10.9711C6.21153 11.2316 5.78942 11.2319 5.5289 10.9717C5.26839 10.7115 5.26811 10.2894 5.52829 10.0289L7.13774 8.41733C7.39814 8.157 7.3984 7.73453 7.13807 7.4742C6.8778 7.21393 6.45585 7.21387 6.19548 7.474L3.91934 9.75227C3.13829 10.5333 3.13808 11.7998 3.91912 12.5809C4.70017 13.3619 5.9665 13.3619 6.74753 12.5809L12.0809 7.24753C12.8619 6.4665 12.8619 5.20017 12.0809 4.41912C11.2998 3.63807 10.0335 3.63807 9.25247 4.41912L8.6996 4.97157C8.4392 5.23183 8.01707 5.23168 7.7568 4.97124C7.49654 4.71081 7.49674 4.28869 7.75714 4.02843L8.3098 3.47615C8.30987 3.47609 8.30974 3.4762 8.3098 3.47615Z" fill="#555555"/>
</svg>
