<svg width="290" height="32" viewBox="0 0 290 32" fill="none" xmlns="http://www.w3.org/2000/svg">
<path d="M58.6622 19.6652H58.6182L53.5567 8.17001H50.113V23.3803H52.6418V11.7784H52.6898L57.5476 22.4896H59.7568L64.6146 11.7975H64.6826V23.3803H67.1674V8.17001H63.7477L58.6622 19.6652Z" fill="black"/>
<path d="M102.115 11.8622C99.4704 11.8622 98.3758 13.773 98.3319 14.0128L97.9204 12.0791H96.0028V23.3764H98.4677V17.1226C98.4677 15.4059 99.5184 13.8643 101.5 13.8643C103.074 13.8643 104.121 14.8197 104.121 16.7343V23.3841H106.585V16.643C106.581 13.2325 104.532 11.8622 102.115 11.8622Z" fill="black"/>
<path d="M140.315 11.8623C138.193 11.8623 137.123 13.0118 136.711 13.6436V7.47351H134.25V23.3765H136.711V17.1226C136.711 15.406 137.622 13.8644 139.699 13.8644C141.273 13.8644 142.32 14.8198 142.32 16.7344V23.3841H144.785V16.643C144.781 13.2325 142.732 11.8623 140.315 11.8623Z" fill="black"/>
<path d="M158.671 11.8622C157.233 11.8622 155.571 12.3837 154.68 13.7539L154.361 12.0791H152.399V27.0724H154.86V21.9871C155.839 23.3993 157.461 23.5934 158.647 23.5934C162.251 23.5934 164.324 20.8795 164.324 17.7506C164.328 14.363 162.067 11.8622 158.671 11.8622ZM158.26 21.5989C156.071 21.5989 154.589 19.9697 154.589 17.7088C154.589 15.3412 156.206 13.8643 158.26 13.8643C160.245 13.8643 161.795 15.4059 161.795 17.7088C161.795 19.9659 160.245 21.5989 158.26 21.5989Z" fill="black"/>
<path d="M78.2095 13.4913C77.1388 12.102 75.6088 11.8622 74.4942 11.8622C70.8228 11.8622 68.7455 14.5343 68.7455 17.7278C68.7455 21.0089 70.9587 23.5934 74.4942 23.5934C76.1121 23.5934 77.6422 23.0948 78.3932 21.7016L78.7128 23.3764H80.6744V12.0791H78.2095V13.4913ZM74.7898 21.5989C72.7164 21.5989 71.2783 20.0763 71.2783 17.7316C71.2783 15.3831 72.7164 13.8643 74.7898 13.8643C77.003 13.8643 78.4851 15.5391 78.4851 17.7316C78.4851 19.9888 76.9351 21.5989 74.7898 21.5989Z" fill="black"/>
<path d="M117.436 13.4913C116.365 12.102 114.835 11.8622 113.72 11.8622C110.049 11.8622 107.976 14.5343 107.976 17.7278C107.976 21.0089 110.189 23.5934 113.72 23.5934C115.338 23.5934 116.868 23.0948 117.619 21.7016L117.939 23.3764H119.901V12.0791H117.436V13.4913ZM114.012 21.5989C111.939 21.5989 110.5 20.0763 110.5 17.7316C110.5 15.3831 111.939 13.8643 114.012 13.8643C116.225 13.8643 117.707 15.5391 117.707 17.7316C117.707 19.9888 116.157 21.5989 114.012 21.5989Z" fill="black"/>
<path d="M149.827 12.0791H147.362V23.3764H149.827V12.0791Z" fill="black"/>
<path d="M91.7243 13.7539C90.8334 12.3837 89.1715 11.8622 87.7333 11.8622C84.6093 11.8622 82.0765 14.0508 82.0765 17.2558C82.0765 20.4608 84.6093 22.6494 87.7333 22.6494C89.0796 22.6494 90.6217 22.1812 91.5405 20.9937V21.42C91.5405 23.6771 90.5218 25.2872 88.1248 25.2872C86.8944 25.2872 85.5361 24.6782 84.6852 23.5325L83.0633 24.8533C84.034 26.334 85.9196 27.2856 88.0649 27.2856C92.3435 27.2856 94.0054 24.9751 94.0054 21.0089V12.0791H92.0439L91.7243 13.7539ZM88.1448 20.6549C86.1833 20.6549 84.6093 19.5396 84.6093 17.2596C84.6093 14.9796 86.1833 13.8643 88.1448 13.8643C90.1982 13.8643 91.8162 14.892 91.8162 17.2596C91.8162 19.6272 90.1982 20.6549 88.1448 20.6549Z" fill="black"/>
<path d="M149.827 7.47351H147.362V9.82204H149.827V7.47351Z" fill="black"/>
<path d="M132.704 20.9404C131.726 22.4934 129.616 23.5706 127.459 23.5706C123.82 23.5706 121.159 21.0356 121.159 17.7126C121.159 14.3897 123.768 11.8546 127.307 11.8546C129.365 11.8546 131.222 12.8367 132.325 14.2945L130.567 15.7067C129.916 14.8464 128.809 14.009 127.303 14.009C125.17 14.009 123.54 15.5887 123.54 17.7164C123.54 19.9165 125.198 21.4239 127.455 21.4239C129.009 21.4239 130.116 20.6359 130.867 19.6767L132.704 20.9404Z" fill="black"/>
<path d="M41.9551 19.7333V12.5826L20.2509 0V7.14286L16.1929 9.49497L10.0315 5.92354V13.0664L5.82068 15.505L0 18.8798L21.712 31.4663L27.5327 28.0916L10.5642 18.2583V13.3811L11.1165 13.7036L31.7395 25.6569V18.5061L20.7797 12.1539V7.45752L21.336 7.78005L41.9551 19.7333Z" fill="black"/>
<path d="M280.602 13.752V14.1062C280.602 16.6981 281.478 19.3273 283.903 20.6139L282.579 22.4413C281.068 21.6395 280.08 20.2783 279.465 18.6374C278.887 20.4275 277.88 21.9565 276.332 22.8516L274.952 21.0055C277.395 19.5697 278.271 16.7541 278.271 14.1062V13.752H275.586V11.7754H278.271V9.46321H280.602V11.7754H283.231V13.752H280.602ZM284.201 15.3929V9.18351H286.494V25.2943H284.201V17.3881H282.243V15.3929H284.201ZM287.669 8.88516H290V26.0588H287.669V8.88516Z" fill="#055BB2"/>
<path d="M268.036 22.1244H274.599V24.1382H259.048V22.1244H265.574V18.5442H260.857V10.0786H272.809V12.0552H263.337V16.5677H272.94V18.5442H268.036V22.1244Z" fill="#055BB2"/>
<path d="M249.129 16.9219V14.4792H245.754V16.9219H249.129ZM251.553 10.1345V18.8612H243.33V10.1345H245.754V12.5772H249.129V10.1345H251.553ZM247.731 20.297V23.8212H256.961V25.7791H245.269V20.297H247.731ZM256.346 13.752H258.62V15.7658H256.346V21.5463H253.884V8.90381H256.346V13.752Z" fill="#055BB2"/>
<path d="M232.669 16.3252L231.569 18.2272C229.593 17.7237 228.213 16.6609 227.411 15.2624C226.646 16.7914 225.248 17.9661 223.215 18.5442L222.097 16.6236C224.726 15.915 225.957 14.1995 226.124 12.4467H222.675V10.5075H226.143V8.8479H228.604V10.5075H232.054V12.4467H228.623C228.809 14.069 230.059 15.6726 232.669 16.3252ZM233.77 23.9331V22.4787H227.243V23.9331H233.77ZM233.77 20.5767V19.0849H236.212V25.8724H224.8V19.0849H227.243V20.5767H233.77ZM233.732 8.92249H236.212V18.4137H233.732V8.92249Z" fill="#055BB2"/>
<path d="M208.71 10.5261V19.8121C210.873 19.7562 213.204 19.5697 215.609 19.1036L215.851 21.1174C212.999 21.7141 210.239 21.8633 207.74 21.8633H206.248V10.5261H208.71ZM221.576 15.3742V17.4067H219.171V26.0401H216.709V8.88516H219.171V15.3742H221.576Z" fill="#055BB2"/>
<path d="M200.675 12.5213V12.4467H191.109V10.4888H203.136V12.5213C203.136 14.9267 203.136 17.2762 202.502 20.8004L200.059 20.5766C200.675 17.2948 200.675 14.8521 200.675 12.5213ZM189.505 21.826H205.038V23.8398H189.505V21.826Z" fill="#055BB2"/>
<path d="M176.062 12.5959V19.8681H178.263V12.5959H176.062ZM173.769 21.7887V10.6566H180.537V21.7887H173.769ZM185.684 8.88516H188.015V26.0588H185.684V17.4254H184.248V25.2943H181.955V9.16486H184.248V15.4488H185.684V8.88516Z" fill="#055BB2"/>
</svg>
